<?xml version="1.0" encoding="iso-8859-1"?>
<!-- Generator: Adobe Illustrator 19.0.0, SVG Export Plug-In . SVG Version: 6.00 Build 0)  -->
<svg version="1.1" id="Capa_1" xmlns="http://www.w3.org/2000/svg" xmlns:xlink="http://www.w3.org/1999/xlink" x="0px" y="0px"
	 viewBox="0 0 512 512" style="enable-background:new 0 0 512 512;" xml:space="preserve">
<path style="fill:#F9F4ED;" d="M221.867,383.999h68.267c14.14,0,25.6-11.46,25.6-25.6v-34.133H196.267v34.133
	C196.267,372.539,207.728,383.999,221.867,383.999z"/>
<path style="fill:#1986E0;" d="M400.897,358.399h-68.096c-0.026,23.552-19.115,42.641-42.667,42.667h-68.267
	c-23.552-0.026-42.641-19.115-42.667-42.667h-68.096c-36.045-0.145-67.294,24.917-74.957,60.143l-16.973,76.39h84.531l7.347-44.066
	l16.828,2.799l-6.878,41.267h269.995l-6.878-41.267l16.828-2.799l7.347,44.066h84.531l-16.973-76.399
	C468.182,383.317,436.942,358.254,400.897,358.399z"/>
<g>
	<path style="fill:#F9F4ED;" d="M324.267,307.199c14.14,0,25.6-11.46,25.6-25.6v-3.328l-9.754,16.256l-0.119-0.077
		c-1.485,2.577-4.215,4.181-7.194,4.215H179.2c-3.217-0.017-6.144-1.86-7.552-4.753h-0.085l-9.429-18.833v6.519
		c0,14.14,11.46,25.6,25.6,25.6L324.267,307.199L324.267,307.199z"/>
	<path style="fill:#F9F4ED;" d="M141.262,182.399c-1.28,0.708-2.5,1.51-3.652,2.415c-6.101,4.838-9.643,12.203-9.609,19.985
		c0.017,10.846,6.844,20.514,17.067,24.141v-48.247c-1.092,0.401-2.159,0.879-3.191,1.425
		C141.654,182.22,141.466,182.288,141.262,182.399z"/>
	<polygon style="fill:#F9F4ED;" points="162.134,236.919 170.667,253.986 170.667,207.641 162.134,196.258 	"/>
</g>
<path style="fill:#636E71;" d="M182.162,97.766c-0.119-0.435-0.273-0.853-0.384-1.271c-0.734-2.807-1.306-5.658-1.707-8.533
	c-0.111-0.708-0.196-1.425-0.282-2.133c-0.375-2.995-0.572-6.007-0.589-9.028c0.026-3.413,0.282-6.81,0.759-10.189
	c0.128-0.939,0.29-1.869,0.452-2.799c0.452-2.637,1.041-5.248,1.766-7.817c0.213-0.751,0.375-1.502,0.614-2.244
	c0.998-3.183,2.202-6.298,3.601-9.327c0.29-0.623,0.64-1.212,0.947-1.835c1.212-2.432,2.551-4.804,4.019-7.091
	c0.282-0.444,0.486-0.93,0.777-1.365h-12.937c-23.552,0.026-42.641,19.115-42.667,42.667v88.909c0.41-0.179,0.853-0.239,1.271-0.41
	c1.835-0.725,3.712-1.323,5.623-1.783c0.555-0.137,1.075-0.41,1.638-0.521v-52.062c0-4.71,3.823-8.533,8.533-8.533h29.995
	C183.049,100.88,182.614,99.319,182.162,97.766z"/>
<rect x="187.73" y="213.329" style="fill:#FEE9AB;" width="136.53" height="68.27"/>
<path style="fill:#636E71;" d="M213.735,119.065c3.644,3.669,7.782,6.81,12.288,9.335c9.088,5.35,19.439,8.158,29.978,8.132h51.2
	c16.469,0.034,32.657-4.284,46.933-12.501l0,0c1.57-0.905,3.072-1.903,4.582-2.893c4.736-3.089,9.182-6.605,13.278-10.496
	c1.809-1.707,3.55-3.507,5.222-5.393c15.394-17.203,23.893-39.492,23.851-62.583v-25.6H256.001
	c-32.99,0-59.733,26.743-59.733,59.733c-0.026,10.47,2.748,20.762,8.03,29.798C206.849,111.172,210.023,115.37,213.735,119.065z"/>
<path style="fill:#F9F4ED;" d="M162.134,167.824l21.333,28.442H204.8c-9.429,0-17.067-7.637-17.067-17.067
	c0-9.429,7.637-17.067,17.067-17.067c9.429,0,17.067,7.637,17.067,17.067c0,9.429-7.637,17.067-17.067,17.067h102.4
	c-9.429,0-17.067-7.637-17.067-17.067c0-9.429,7.637-17.067,17.067-17.067s17.067,7.637,17.067,17.067
	c0,9.429-7.637,17.067-17.067,17.067h21.333l21.333-28.442v-22.69h-0.077c-0.205,0.085-0.427,0.145-0.64,0.23
	c-3.823,1.536-7.731,2.859-11.699,3.959c-1.271,0.358-2.56,0.649-3.84,0.956c-3.106,0.759-6.238,1.374-9.387,1.869
	c-1.289,0.196-2.56,0.418-3.866,0.572c-4.361,0.555-8.755,0.845-13.158,0.879h-51.2c-13.525,0.026-26.803-3.558-38.468-10.402
	c-5.82-3.268-11.162-7.33-15.863-12.066c-2.125-2.176-4.122-4.471-5.973-6.886c-0.546-0.7-1.05-1.425-1.57-2.142
	c-0.64-0.853-1.34-1.707-1.929-2.637h-30.063L162.134,167.824L162.134,167.824z"/>
<path style="fill:#636E71;" d="M373.488,131.575c-1.707,1.28-3.413,2.517-5.205,3.686c-0.461,0.307-0.853,0.657-1.348,0.956v25.916
	h8.533v-31.957C374.827,130.67,374.136,131.097,373.488,131.575z"/>
<g>
	<polygon style="fill:#F9F4ED;" points="341.334,259.327 349.867,245.102 349.867,238.933 349.867,196.258 341.334,207.641 	"/>
	<path style="fill:#F9F4ED;" d="M366.934,180.659v48.282c13.329-4.702,20.326-19.328,15.625-32.657
		C379.982,188.979,374.239,183.236,366.934,180.659z"/>
</g>
<g>
	<circle style="fill:#231F20;" cx="307.2" cy="179.199" r="17.07"/>
	<circle style="fill:#231F20;" cx="204.8" cy="179.199" r="17.07"/>
	<path style="fill:#231F20;" d="M492.511,414.822c-9.378-43.042-47.565-73.677-91.614-73.489h-68.096v-17.92
		c19.849-4.079,34.108-21.547,34.133-41.813v-34.987c23.031-4.642,37.939-27.076,33.297-50.099
		c-1.741-8.627-6.11-16.503-12.51-22.545c3.089-3.166,4.813-7.415,4.813-11.836v-48.7c16.546-19.866,25.609-44.911,25.6-70.767
		V8.533c0-4.71-3.823-8.533-8.533-8.533h-153.6c-17.519,0.034-34.5,6.059-48.128,17.067h-28.672
		c-32.973,0.034-59.699,26.761-59.733,59.733v93.867c0.043,2.304,0.563,4.574,1.527,6.665
		c-15.181,18.022-12.868,44.937,5.154,60.117c5.444,4.582,11.947,7.731,18.918,9.165v34.985
		c0.026,20.267,14.285,37.734,34.133,41.813v17.92h-68.096c-44.058-0.179-82.244,30.455-91.614,73.498L0.206,501.614
		c-1.024,4.599,1.877,9.156,6.477,10.18c0.605,0.137,1.228,0.205,1.851,0.205h494.933c4.71,0,8.533-3.823,8.533-8.533
		c0-0.623-0.068-1.246-0.205-1.852L492.511,414.822z M196.267,324.266h119.467v34.133c0,14.14-11.46,25.6-25.6,25.6h-68.267
		c-14.14,0-25.6-11.46-25.6-25.6V324.266z M307.201,196.266H183.467l-21.333-28.442v-48.358h30.02
		c0.589,0.905,1.289,1.707,1.929,2.637c0.521,0.717,1.024,1.442,1.57,2.142c1.852,2.415,3.849,4.71,5.973,6.886
		c4.702,4.736,10.044,8.798,15.863,12.066c11.674,6.844,24.977,10.436,38.511,10.402h51.2c4.395-0.026,8.772-0.316,13.133-0.853
		c1.297-0.154,2.56-0.375,3.866-0.572c3.174-0.495,6.306-1.109,9.387-1.869c1.289-0.307,2.56-0.597,3.84-0.956
		c3.968-1.101,7.876-2.423,11.699-3.959c0.213-0.085,0.435-0.145,0.64-0.23h0.077v22.69l-21.308,28.416L307.201,196.266
		L307.201,196.266z M324.267,213.333v68.266H187.734v-68.267L324.267,213.333L324.267,213.333z M162.134,236.919v-40.653
		l8.533,11.383v46.345L162.134,236.919z M373.488,131.575c0.649-0.478,1.34-0.905,1.98-1.399v31.957h-8.533v-25.916
		c0.461-0.299,0.853-0.649,1.348-0.956C370.057,134.092,371.781,132.855,373.488,131.575z M341.334,207.641l8.533-11.375v48.845
		l-8.533,14.217V207.641z M366.934,228.974v-48.315c13.329,4.702,20.326,19.328,15.625,32.657
		c-2.577,7.305-8.32,13.047-15.625,15.625V228.974z M401.067,17.066v25.6c0.026,23.091-8.482,45.38-23.893,62.575
		c-1.673,1.869-3.413,3.669-5.222,5.393c-4.096,3.891-8.542,7.407-13.278,10.496c-1.51,0.99-3.012,1.988-4.582,2.893l0,0
		c-14.259,8.218-30.43,12.527-46.891,12.51h-51.2c-10.539,0.026-20.898-2.782-29.978-8.132c-4.506-2.526-8.644-5.666-12.288-9.335
		c-3.712-3.695-6.886-7.893-9.438-12.467c-5.282-9.037-8.055-19.328-8.03-29.798c0-32.99,26.743-59.733,59.733-59.733h145.067
		V17.066z M136.534,76.799c0.026-23.552,19.115-42.641,42.667-42.667h12.937c-0.29,0.435-0.495,0.922-0.777,1.365
		c-1.468,2.287-2.807,4.659-4.019,7.091c-0.307,0.623-0.657,1.212-0.947,1.835c-1.399,3.029-2.603,6.153-3.601,9.335
		c-0.239,0.742-0.401,1.493-0.614,2.244c-0.725,2.569-1.314,5.18-1.766,7.817c-0.162,0.93-0.324,1.86-0.452,2.799
		c-0.478,3.371-0.734,6.775-0.759,10.18c0.017,3.012,0.213,6.016,0.589,9.003c0.085,0.708,0.171,1.425,0.282,2.133
		c0.401,2.876,0.973,5.726,1.707,8.533c0.111,0.427,0.265,0.853,0.384,1.271c0.444,1.553,0.853,3.115,1.434,4.634h-29.995
		c-4.71,0-8.533,3.823-8.533,8.533v52.053c-0.563,0.111-1.084,0.384-1.638,0.521c-1.911,0.461-3.789,1.058-5.623,1.783
		c-0.41,0.171-0.853,0.23-1.271,0.41V76.799H136.534z M128.001,204.799c-0.034-7.782,3.507-15.147,9.609-19.985
		c1.152-0.905,2.372-1.707,3.652-2.415c0.205-0.111,0.418-0.179,0.614-0.282c1.033-0.546,2.099-1.024,3.191-1.425v48.247
		C134.845,225.314,128.018,215.645,128.001,204.799z M162.134,281.599v-6.519l9.429,18.867h0.085
		c1.417,2.876,4.343,4.702,7.552,4.719h153.6c2.978-0.034,5.709-1.638,7.194-4.215l0.119,0.077l9.754-16.256v3.328
		c0,14.14-11.46,25.6-25.6,25.6H187.734C173.594,307.199,162.134,295.739,162.134,281.599z M408.295,494.933l-7.347-44.066
		l-16.828,2.799l6.878,41.267H121.003l6.878-41.267l-16.828-2.799l-7.347,44.066H19.175l16.973-76.39
		c7.671-35.226,38.912-60.288,74.957-60.143h68.096c0.026,23.552,19.115,42.641,42.667,42.667h68.267
		c23.552-0.026,42.641-19.115,42.667-42.667h68.096c36.045-0.145,67.285,24.917,74.957,60.134l16.973,76.399L408.295,494.933
		L408.295,494.933z"/>
</g>
<g>
</g>
<g>
</g>
<g>
</g>
<g>
</g>
<g>
</g>
<g>
</g>
<g>
</g>
<g>
</g>
<g>
</g>
<g>
</g>
<g>
</g>
<g>
</g>
<g>
</g>
<g>
</g>
<g>
</g>
</svg>
